<?xml version="1.0" encoding="UTF-8"?>
<svg enable-background="new 0 0 794.615 364.385" viewBox="0 0 794.615 364.385" xmlns="http://www.w3.org/2000/svg">
 <defs>
  <linearGradient id="a" x1="399.06" x2="403.21" y1="13.403" y2="356.41" gradientUnits="userSpaceOnUse">
   <stop stop-color="#97d6f2" offset=".012"/>
   <stop stop-color="#abdef5" offset=".095"/>
   <stop stop-color="#c9eaf8" offset=".245"/>
   <stop stop-color="#e1f3fb" offset=".404"/>
   <stop stop-color="#f2fafd" offset=".572"/>
   <stop stop-color="#fcfeff" offset=".756"/>
   <stop stop-color="#fff" offset=".988"/>
  </linearGradient>
 </defs>
 <path d="m7.691 9.769h786.92v353.62h-786.92z" fill="url(#a)" stroke="#abdcef"/>
 <path d="m294.863,268.109c-30.988,3.479-61.737,8.748-91.838,16.047-29.525,7.186-60.834,16.924-85.65,28.273l-.959-1.933-.292-.557c.604-.184 1.795-.637 2.811-.983l1.292-.727-.233-.767-.509-1.993c-2.3.815-4.748-5.648-4.756-5.65l1.082-.114c-2.756-1.858-3.685-11.718-3.642-11.735l1.646.584-1.479-5.307c0-.002 1.123.812.731-.627-.396-1.438-.074-4.785-.071-4.787 2.059,2.031 4.564,9.363 7.615,17.74 3.035,8.382.357,9.013.363,9.018l.996,3.409 1.982-.732-.186-.662-.57-.706-.387-.391 .63-1.052 .223-1.207 1.838-.807-.563-2.104c-2.825,1.584-3.909-15.1-3.832-15.116 .001-.001 1.194-.339 3.613,6.55s.972,7.842.971,7.843l.44,1.314 .361-.064 .195-1.429 .58-.685-.153-1.715 1.261-1.038-.046-1.73 2.57-1.254-.307-1.689 1.482-.245-3.489-9.981-2.303.275-.316-1.34c5.461-4.164 11.064-8.228 16.77-12.195 3.629.622 7.244,1.299 10.835,1.997l1.714-.308 2.361,1.811 .251-.257-.077-.454 1.154-.124 4.731,11.031 4.238-.415-.327-3.301 1.042-.094 .846.502 2.332.828 .566,2.48 5.174,1.534c.65,5.117 5.314.168 5.33.184l-1.231-4.161c-3.424,1.391-4.866-2.043-4.869-2.047-2.159.969-2.302-2.002-2.301-2.002-3.423.957-1.962-3.52-1.96-4.21s-.167-2.513-.167-2.513c-1.002-4.285 3.332-4.064 3.329-4.063-2.31-1.894 2.628-2.273 2.63-2.262 5.767-.755 4.757,2.19 4.761,2.189 4.148-1.064 3.717,3.448 3.719,3.444 3.32,1.991-1.75,5.368-1.737,5.383l1.259,3.13-2.33,1.877 .677,2.252c0,0 1.437-1.358 1.799-1.498 .36-.146 2.783-1.313 2.784-1.311l-1.391-5.079 1.388-3.635-4.283-15.374-.051.019c-1.509.553-2.52-2.138-2.52-2.137l-1.335.426 1.329-15.37 5.774-2.64-.07-1.721c-.072-1.72-.216-1.138-.216-1.138l-1.457-.376-.385-1.817 1.39-1.345-.776-2.716 1.105-.181 .75,2.488 .585-.263 .058-.464-.084-1.952 .915-.045 .561,2.729 1.985.597 .422,2.392-.482.253 1.659,6.926 6.274,6.503-1.451,1.438 2.773,10.79 6.098,3.007-1.463.956 .791,3.416-.675.016 .374,5.036 1.624,6.136 2.417-.519-.561-4.108 3.563-.657-2.456-14.612-1.368-.078-.19-1.141-2.051-.058 3.555-10.762-2.725-1.997-.683-7.674 .881-.25-1.996-2.586 2.432-3.962 3.216,2.911-.87.48-.594,2.995 .791,5.488 1.831.651 2.319-6.934 3.283-1.874c-.599,2.52 10.989,15.501 10.945,15.54l-.977-.004-.097,1.831-2.181,2.759 1.472,11.686 .863,1.604 2.903.686-.501-2.063-2.131-.458c2.789-.922 2.327-17.394 2.339-17.406l2.027,5.514 3.278-.434-.092-2.067 .964-.218 4.535,11.313-1.314.66 .824,9.859 2.442-.399c-1.259-13.08-2.465-26.17-3.616-39.27l1.569-.666-1.121-4.15c4.846-.661 9.687-1.339 14.54-1.907l.423,2.082 .8.26 3.689,26.535 1.92-.375-.906-10.595 7.603-.547 1.046,19.562 3.045.176 .598,7.15 1.696.101-.01-3.441 2.271-.092 .189-1.134 2.666-2.104c0,0-2.1,2.373.568.27 2.679-2.105 4.145,2.822 4.142,2.822l1.702-.107c-.007-.009 1.805-6.74.068-5.05-1.729,1.71-4.343-2.837-4.348-2.837-2.699,3.485-4.577-1.009-4.582-1.008-7.084-4.356-1.319-8.358-1.302-8.35-1.538-3.087 4.123-5.695 4.127-5.696l.599-1.338c.603-1.34 2.552-1.211 2.551-1.21 2.228-4.198 5.286-.508 5.279-.509 0,0-3.528.872.378.49s2.638,3.43 2.64,3.43c2.329-.045 2.441,2.727 2.442,2.727 4.83.202 2.783,3.704 2.787,3.7 2.978,3.038-2.859,5.939-2.85,5.959-.232,1.591-4.058,2.192-4.058,2.192l.771,9.487 2.268-.268 .703,3.767z" fill="#95c048"/>
 <path d="m183.505,274.357-.191,2.195 .344.432 1.431-1.47-.694-1.677z" fill="#fff"/>
 <path d="m181.028,275.901 .216,1.591-.949.062-.629-.411z" fill="#fff"/>
 <path d="m178.75 278.14-1.374-1.619 1.089-0.428 0.189 1.363" fill="#fff"/>
 <path d="m257.694,228.53 1.478-.515c-.009.013-.771-9.475 5.63-4.125l-3.569,1.677 .402.705 3.467-1.563c.001.003 1.293,4.765-2.157,5.174 0,0-3.254.333-3.371-1.396s-.102-.348-.102-.348" fill="#fff"/>
 <path d="m288.035,255.991c-.001-.012-3.338.439-3.499-2.326s-.091-.466-.091-.466l1.644-1.15c.001-.005 1.671,3.458 2.15,3.155s-.204.787-.204.787z" fill="#fff"/>
 <path d="m288.087,252.779 .748.982 .796-1.657z" fill="#fff"/>
 <path d="m130.73,280.252 2.424-.389 3.238,8.708-.662.279 .264,1.173-1.038.512-.344-1.512-.838.132z" fill="#fff"/>
 <path d="m135.255,279.363 2.713-1.103 2.795,8.215-.912.25 .406,1.908-.465.068-.64-1.18-.841.125z" fill="#fff"/>
 <path d="m139.958,277.917 2.667-.376 2.574,7.045-.706.33 .391,1.449-1.101.268-.252-1.238-1.127.156z" fill="#fff"/>
 <path d="m144.569,276.471 3.411-.564 2.052,7.245-.616.312 .218,1.128-.917.231-.712-1.178-.825.22z" fill="#fff"/>
 <path d="m150.231,275.4 1.542-.649 2.27,7.69-1.602.189z" fill="#fff"/>
 <path d="m155.786,274.289 1.03-.231 1.818,6.6-1.304.256z" fill="#fff"/>
 <path d="m189.133,253.348 2.2-.573 .512,2.038-2.072.793z" fill="#fff"/>
 <path d="m189.85,256.293 2.178-.685 .822,4.892-1.801.432z" fill="#fff"/>
 <path d="m191.895,252.518 1.319-.528 .506,2.04-.972.05-.367.249z" fill="#fff"/>
 <path d="m192.551,255.008 1.326-.411 1.026,5.113-1.535.191z" fill="#fff"/>
 <path d="m183.1 250.62 1.715-0.569 0.529 2.034c-1e-3 0-1.786 1.606-2.244-1.465z" fill="#fff"/>
 <path d="m198.487,263.439 .856,3.633 3.399-.582-.592-4.104c.006-.001-2.632-3.112-3.663,1.053z" fill="#fff"/>
 <path d="m195.968,251.048 1.338-.398-.704-4.214-1.467.175z" fill="#fff"/>
 <path d="m218.622,240.294 1.653-.357 .054,2.406-1.37.125z" fill="#fff"/>
 <path d="m216.935,251.45 1.433-.367 .299,1.485-1.519.483z" fill="#fff"/>
 <path d="m218.928,250.729 .208,1.603 1.708-.602-.497-1.598z" fill="#fff"/>
 <path d="m217.399,253.849 1.51-.597 .904,4.572-1.605.483z" fill="#fff"/>
 <path d="m219.175,252.904 1.819-.373 .802,4.691-1.614.368z" fill="#fff"/>
 <path d="m226.42 245.74 2.021-0.582-0.022 1.373-1.748 1.846z" fill="#fff"/>
 <path d="m234.467,258.259 1.873-.901 .104,2.064-1.869.9z" fill="#fff"/>
 <path d="m236.906,257.135 1.057.008 .178,1.722-1.054-.01z" fill="#fff"/>
 <path d="m237.05 260 1.626 0.014 0.054 3.096-1.694 0.441z" fill="#fff"/>
 <path d="m236.305,260.451 .261,3.21-1.311.444-.649-3.212z" fill="#fff"/>
 <path d="m247.846,226.956-1.092.088-.442-1.848 1.285-.425z" fill="#fff"/>
 <path d="m246.978,231.979 2.065-.402 .284,3.562-1.866.18z" fill="#fff"/>
 <path d="m247.489,236.352 2.45-.276 .319,4.94-2.523.614z" fill="#fff"/>
 <path d="m250.625,235.979 2.742-.38 .199,4.94-2.731.149z" fill="#fff"/>
 <path d="m254.503,243.322 2.432-.028 .679,5.3-2.506.254z" fill="#fff"/>
 <path d="m247.89 250 3.271-0.585 0.79 7.474-3.046 0.586z" fill="#fff"/>
 <path d="m255.6,257.466 2.18-.845 .421,5.863-2.358.608z" fill="#fff"/>
 <path d="m266.312,249.775 1.446-.033-.25,4.801-1.147.173z" fill="#fff"/>
 <path d="m265.684,243.894 1.647-.367 .227,5.401-1.448-.079z" fill="#fff"/>
 <path d="m294.109,264.35 8.44.136 .19,2.781-7.928.849z" fill="#95c048"/>
 <path d="m488.247,268.574c-62.358-6.875-125.328-7.599-187.404-1.115l-.224-2.146 .028-.635 3.771-.09 1.611-.301 .028-.803 .168-2.056c-2.646.085-2.893-6.84-2.891-6.84l1.136.226c-2.109-2.618.257-12.294.27-12.295l1.406,1.053 .23-5.504c0,0 .827,1.122.892-.369 .064-1.49 1.378-4.577 1.38-4.577 1.348,2.559 1.558,10.302 1.934,19.209 .371,8.907-2.546,8.698-2.548,8.701l-.133,3.556 2.264-.1 .029-.688-.344-.845-.262-.489 .978-.813 .613-1.083 2.091-.228 .098-2.177c-3.273.68.816-15.581.847-15.583 0,0 1.254.02 1.554,7.315s-1.429,7.796-1.43,7.796l.03,1.387 .377.042 .631-1.314 .782-.491 .371-1.688 1.554-.639 .471-1.67 2.891-.456 .192-1.707 1.52.184-.52-10.561-2.302-.389 .08-1.374c6.453-2.457 12.959-4.799 19.511-7.117l9.926,4.793 1.739.15 1.814,2.375 .311-.181 .044-.458 1.151.183 1.723,11.877 4.243.686 .535-3.281 1.039.166 .695.701 2.061,1.406-.084,2.542 4.664,2.8c-.671,5.117 5.159,1.493 5.166,1.501l-.152-4.337c-3.696.506-4.232-3.19-4.232-3.191-2.352.399-1.734-2.513-1.734-2.513-3.577.071-1.012-3.898-.837-4.567 .171-.667.475-2.475.476-2.475 .114-4.399 4.258-3.103 4.256-3.103-1.763-2.405 3.118-1.554 3.118-1.537 5.78.727 4.071,3.322 4.074,3.322 4.292-.013 2.757,4.25 2.76,4.25 2.739,2.733-3.037,4.792-3.031,4.792l.447,3.347-2.747,1.228 .096,2.349c-.001,0 1.746-.951 2.134-.995s3.047-.584 3.047-.584l-.093-5.265 2.253-3.19-.364-15.953-.054.006c-1.598.171-1.911-2.685-1.912-2.685l-1.396.09 5.055-14.589 6.2-1.131 .349-1.686c.347-1.686.067-1.156.067-1.156l-1.311-.722 .069-1.856 1.661-.963-.09-2.823 1.104.096 .122,2.596 .625-.112 .167-.436 .388-1.913 .89.172-.117,2.785 1.767,1.045-.168,2.424-.525.133-.068,7.122 4.499,7.829-1.75,1.034 .088,11.142 5.205,4.401-1.654.581-.052,3.505-.661-.146-.851,4.972 .101,6.348 2.488.077 .442-4.124 3.637.206 1.102-14.777-1.311-.4 .088-1.154-1.979-.542 6.014-9.614-2.165-2.583 1.159-7.617 .911-.037-1.315-2.982 3.284-3.272 2.419,3.596-.953.258-1.28,2.766-.532,5.518 1.619,1.071 3.878-6.178 3.615-1.067c-1.178,2.284 7.025,17.671 6.984,17.682l-.948-.229-.521,1.759-2.767,2.156-1.306,11.698 .465,1.766 2.674,1.366-.006-2.123-1.973-.959c2.943-.211 6.331-16.374 6.343-16.373l.69,5.833 3.293.334 .39-2.032 .988.004 1.804,12.058-1.435.335-1.481,9.781 2.482.182c1.798-13.015 3.64-26.027 5.526-39.037l1.674-.282-.136-4.298c4.85.42 9.691.921 14.528,1.449l-.061,2.123 .718.432-2.414,26.682 1.96.064 1.512-10.527c2.515.355 5.021.779 7.528,1.184l-3.375,19.294 2.938.861-1.021,7.101 1.64.483 .763-3.355 2.245.423 .439-1.066 3.083-1.483c-.001.003-2.588,1.861.496.391 3.09-1.438 3.429,3.697 3.427,3.697l1.69.285c-.004,0 3.265-6.182 1.188-4.907-2.072,1.276-3.618-3.755-3.622-3.755-3.415,2.768-4.253-1.998-4.256-2.003-5.951-5.801.578-8.429.592-8.428-.81-3.36 5.293-4.657 5.295-4.637l.881-1.167c.885-1.168 2.755-.598 2.754-.598 3.101-3.609 5.268.647 5.263.646s-3.635.089.261.559 1.818,3.926 1.821,3.917c2.281.492 1.782,3.219 1.783,3.219 4.672,1.266 1.906,4.226 1.91,4.226 2.246,3.618-4.102,5.171-4.096,5.171-.576,1.479-4.456,1.252-4.455,1.249l-1.343,9.425 2.284.229-.143,3.823z" fill="#95c048"/>
 <path d="m377.783,248.7-.738,2.074 .227.506 1.767-1.06-.258-1.798z" fill="#fff"/>
 <path d="m374.979,249.567-.19,1.594-.941-.17-.511-.555z" fill="#fff"/>
 <path d="m372.2 251.17-0.93-1.91 1.17-0.143-0.161 1.368" fill="#fff"/>
 <path d="m460.796,221.705 1.552-.172c-.01.016 1.387-9.415 6.396-2.75l-3.842.826 .231.776 3.718-.737c.001.001.188,4.939-3.258,4.549 0,0-3.238-.403-2.962-2.114s-.02-.362-.02-.362" fill="#fff"/>
 <path d="m484.234,255.272c0,0-3.364-.32-2.907-3.053s.015-.475.015-.475l1.861-.745c.002,0 .868,3.743 1.404,3.55s-.374.723-.373.723z" fill="#fff"/>
 <path d="m485 252.15 0.515 1.121 1.146-1.446z" fill="#fff"/>
 <path d="m324.955,240.563 2.45.293 .69,9.265-.724.086-.077,1.202-1.159.208 .095-1.549-.853-.103z" fill="#fff"/>
 <path d="m329.577,240.96 2.93-.305 .439,8.667-.959-.014-.137,1.945-.475-.064-.292-1.31-.856-.114z" fill="#fff"/>
 <path d="m334.526,240.865 2.684.355 .577,7.479-.778.129-.017,1.5-1.147-.039 .095-1.26-1.14-.152z" fill="#fff"/>
 <path d="m339.381,240.699 3.457.388 .046,7.528-.685.132-.093,1.143-.957-.027-.373-1.327-.864-.012z" fill="#fff"/>
 <path d="m345.155,241.193 1.667-.22 .159,8.017-1.611-.24z" fill="#fff"/>
 <path d="m350.834,241.561 1.062.052 .03,6.845-1.338-.095z" fill="#fff"/>
 <path d="m388.455,229.73 2.27-.015-.001,2.101-2.203.262z" fill="#fff"/>
 <path d="m388.428,232.762 2.279-.13-.398,4.944-1.855-.023z" fill="#fff"/>
 <path d="m391.333,229.603 1.406-.188-.006,2.102-.955-.19-.416.151z" fill="#fff"/>
 <path d="m391.361,232.178 1.387-.073-.251,5.209-1.538-.191z" fill="#fff"/>
 <path d="m383.29 225.6 1.798-0.137 0.012 2.102c-1e-3 0-2.125 1.125-1.81-1.965z" fill="#fff"/>
 <path d="m395.073,241.808-.052,3.732 3.455.233 .418-4.128c.004,0-1.806-3.639-3.821.163z" fill="#fff"/>
 <path d="m395.637,229.174 1.393-.073 .337-4.262-1.463-.173z" fill="#fff"/>
 <path d="m420.164,224.149 1.688.03-.514,2.355-1.358-.191z" fill="#fff"/>
 <path d="m415.894,234.58 1.48-.013-.06,1.514-1.592.105z" fill="#fff"/>
 <path d="m418 234.36-0.175 1.606 1.802-0.175-0.106-1.67z" fill="#fff"/>
 <path d="m415.777,237.021 1.61-.218-.201,4.656-1.679.083z" fill="#fff"/>
 <path d="m417.728,236.529 1.857.073-.325,4.748-1.66-.03z" fill="#fff"/>
 <path d="m426.45 231.26 2.099-0.078-0.342 1.33-2.129 1.368z" fill="#fff"/>
 <path d="m431.369,245.315 2.037-.443-.379,2.031-2.034.445z" fill="#fff"/>
 <path d="m434.01,244.785 1.03.253-.227,1.715-1.026-.252z" fill="#fff"/>
 <path d="m433.482,247.607 1.584.389-.667,3.025-1.758.037z" fill="#fff"/>
 <path d="m432.652,247.872-.493,3.184-1.385.129 .116-3.275z" fill="#fff"/>
 <path d="m451.6 217.92-1.08-0.156-8e-3 -1.9 1.345-0.13z" fill="#fff"/>
 <path d="m449.606,222.621 2.099.066-.537,3.535-1.855-.238z" fill="#fff"/>
 <path d="m449.1 227 2.445 0.274-0.816 4.886-2.597 0.04z" fill="#fff"/>
 <path d="m452.238,227.336 2.751.276-.929,4.851-2.69-.499z" fill="#fff"/>
 <path d="m454.338,235.39 2.374.531-.541,5.317-2.501-.331z" fill="#fff"/>
 <path d="m446.369,240.385 3.324.156-.94,7.459-3.11-.104z" fill="#fff"/>
 <path d="m452.185,249.403 2.321-.307-.924,5.801-2.445.034z" fill="#fff"/>
 <path d="m464.391,244.341 1.419.296-1.326,4.62-1.159-.096z" fill="#fff"/>
 <path d="m465.104,238.47 1.689.015-.995,5.313-1.395-.406z" fill="#fff"/>
 <path d="m488.34 264.74 8.246 2.006-0.422 2.755-7.967-0.935z" fill="#95c048"/>
 <path d="m678.543,308.718c-60.224-18.662-121.944-32.134-184.287-39.441l.252-2.143 .166-.614 3.72.735 1.647.058 .203-.777 .614-1.97c-2.615-.494-1.34-7.307-1.338-7.306l1.063.468c-1.492-3.015 2.937-11.942 2.947-11.941l1.145,1.334 1.424-5.328c.001,0 .565,1.265.952-.172s2.339-4.165 2.341-4.164c.759,2.793-.714,10.396-2.281,19.171s-4.389,7.933-4.392,7.945l-.906,3.441 2.244.385 .179-.665-.154-.9-.15-.535 1.136-.579 .837-.922 2.1.237 .569-2.103c-3.353-.057 4.179-15.026 4.205-15.022 0,0 1.221.294-.063,7.482s-3.088,7.295-3.088,7.295l-.271,1.359 .36.125 .903-1.144 .873-.307 .729-1.565 1.66-.282 .822-1.533 2.934.153 .557-1.628 1.449.503 1.762-10.424-2.167-.869 .374-1.327c6.825-.95 13.698-1.942 20.582-2.764l8.694,6.771 1.672.503 1.275,2.706 .343-.111 .139-.438 1.088.422-.8,11.978 4.016,1.571 1.209-3.095 .983.383 .537.827 1.732,1.785-.612,2.47 3.998,3.708c-1.719,4.859 4.754,2.569 4.76,2.57l.745-4.274c-3.73-.289-3.489-4.023-3.49-4.023-2.388-.111-1.179-2.828-1.178-2.828-3.519-.694-.183-4.029.127-4.646s.979-2.319.979-2.319c1.024-4.279 4.808-2.127 4.806-2.128-1.228-2.724 3.371-.859 3.37-.859 5.517,1.866 3.31,4.064 3.312,4.065 4.213.845 1.828,4.734 1.833,4.72 2.125,3.248-3.959,4.053-3.958,4.075l-.25,3.365-2.951.652-.391,2.318c0,0 1.912-.581 2.304-.546 .391.041 3.116.032 3.114.045l.989-5.173 2.859-2.638 2.912-15.693-.055-.005c-1.595-.175-1.315-3.037-1.315-3.037l-1.384-.197 7.92-13.212 6.284.14 .684-1.581c.682-1.581.301-1.118.301-1.118l-1.132-.969 .445-1.803 1.816-.611 .486-2.782 1.058.314-.409,2.566 .633.016 .251-.393 .768-1.795 .833.347-.68,2.703 1.512,1.377-.655,2.34-.54.025-1.511,6.96 2.809,8.589-1.921.659-2.169,10.929 4.212,5.363-1.738.234-.759,3.423-.619-.276-1.84,4.697-1.183,6.238 2.43.58 1.266-3.951 3.531.94 4.05-14.254-1.204-.657 .318-1.112-1.83-.932 7.821-8.214-1.602-2.958 2.663-7.228 .898.142-.688-3.181 3.869-2.574 1.64,4.012-.981.06-1.804,2.451-1.625,5.3 1.368,1.377 5.022-5.269 3.742-.314c-1.618,2.029 3.37,18.682 3.336,18.673l-.887-.404-.859,1.624-3.146,1.588-3.604,11.213 .107,1.818 2.362,1.847 .415-2.081-1.753-1.314c2.945.338 9.461-14.82 9.469-14.812l-.477,5.861 3.157,1 .782-1.913 .967.206-.596,12.165-1.478.055-3.379,9.303 2.411.654 13.08-37.214 1.695.041 .707-4.239c4.656,1.368 9.283,2.835 13.923,4.248l-.47,2.071 .619.561-7.528,25.712 1.914.439 3.517-10.039 7.155,2.623-7.02,18.287 2.728,1.41-2.365,6.773 1.523.791 1.393-3.146 2.13.848 .636-.962 3.318-.861c-.001,0-2.903,1.334.416.474 3.325-.859 2.676,4.282 2.677,4.271l1.611.607c-.004-.001 4.383-5.441 2.098-4.59-2.281.852-2.848-4.389-2.851-4.389-3.896,2.093-3.811-2.754-3.813-2.76-4.744-6.84 2.178-8.164 2.189-8.16-.16-3.432 6.094-3.588 6.089-3.563l1.087-.977c1.09-.977 2.815-.057 2.814-.057 3.726-2.948 5.044,1.648 5.039,1.647s-3.582-.612.15.6 1.046,4.198 1.048,4.198c2.155.891 1.152,3.477 1.152,3.477 4.37,2.078 1.089,4.487 1.092,4.488 1.54,3.951-5.017,4.339-5.012,4.34-.851,1.365-4.62.38-4.62.38l-3.101,9 2.207.667-.858,3.733z" fill="#95c048"/>
 <path d="m573.753,267.322-1.152,1.883 .119.541 1.953-.685 .118-1.811z" fill="#fff"/>
 <path d="m570.82,267.61-.517,1.521-.887-.363-.386-.653z" fill="#fff"/>
 <path d="m567.759,268.588-.515-2.068 1.175.111-.44,1.304" fill="#fff"/>
 <path d="m660.516,257.432 1.554.127c-.011.012 3.178-8.975 6.789-1.459l-3.916.06 .075.81h3.779c.001,0-.766,4.884-4.066,3.838 .004-.013-3.09-1.035-2.489-2.655s.05-.359.05-.359" fill="#fff"/>
 <path d="m677.103,294.871c0,0-3.248-.965-2.28-3.561s.104-.463.104-.463l1.972-.373c.001.001.144,3.845.709,3.759 .567-.084-.505.638-.505.638z" fill="#fff"/>
 <path d="m678.44 291.95 0.295 1.199 1.399-1.198z" fill="#fff"/>
 <path d="m523.714,248.248 2.331.829-1.308,9.198-.728-.077-.332,1.157-1.179-.054 .425-1.491-.813-.29z" fill="#fff"/>
 <path d="m528.147,249.641 2.934.312-1.419,8.562-.938-.214-.55,1.873-.451-.162-.007-1.341-.814-.291z" fill="#fff"/>
 <path d="m533.013,250.579 2.55.918-1.024,7.432-.789-.049-.334,1.462-1.118-.277 .362-1.211-1.085-.387z" fill="#fff"/>
 <path d="m537.794,251.471 3.302,1.107-1.548,7.367-.699-.015-.333,1.098-.933-.228-.084-1.375-.844-.195z" fill="#fff"/>
 <path d="m543.342,253.168 1.678.135-1.535,7.871-1.528-.574z" fill="#fff"/>
 <path d="m548.825,254.721 1.029.266-1.408,6.698-1.292-.364z" fill="#fff"/>
 <path d="m588.096,250.956 2.227.441-.429,2.057-2.211-.187z" fill="#fff"/>
 <path d="m587.452,253.918 2.259.331-1.398,4.76-1.814-.395z" fill="#fff"/>
 <path d="m590.941,251.409 1.416.099-.434,2.057-.896-.378-.439.064z" fill="#fff"/>
 <path d="m590.445,253.937 1.372.207-1.306,5.049-1.469-.497z" fill="#fff"/>
 <path d="m583.895,245.831 1.782.251-.418,2.06c-.001,0-2.304.646-1.364-2.311z" fill="#fff"/>
 <path d="m592.125,264.111-.809,3.644 3.342.936 1.245-3.954c.005-.006-1.028-3.953-3.778-.626z" fill="#fff"/>
 <path d="m595.243,251.854 1.379.208 1.194-4.105-1.396-.464z" fill="#fff"/>
 <path d="m620.256,251.873 1.645.372-.971,2.203-1.291-.463z" fill="#fff"/>
 <path d="m614 261.23 1.452 0.288-0.362 1.47-1.58-0.22z" fill="#fff"/>
 <path d="m616.104,261.438-.494,1.538 1.801.195 .229-1.659z" fill="#fff"/>
 <path d="m613.39 263.6 1.621 0.113-1.128 4.522-1.662-0.259z" fill="#fff"/>
 <path d="m615.402,263.51 1.805.449-1.266,4.587-1.621-.366z" fill="#fff"/>
 <path d="m625 260.09 2.077 0.321-0.599 1.238-2.363 0.937z" fill="#fff"/>
 <path d="m627.044,274.824 2.085-.017-.772,1.914-2.082.019z" fill="#fff"/>
 <path d="m629.739,274.845 .96.458-.561,1.636-.956-.457z" fill="#fff"/>
 <path d="m628.66 277.5 1.477 0.707-1.25 2.83-1.732-0.324z" fill="#fff"/>
 <path d="m627.8 277.59-1.112 3.021-1.385-0.156 0.762-3.188z" fill="#fff"/>
 <path d="m652.24,251.953-1.023-.373 .364-1.866 1.336.146z" fill="#fff"/>
 <path d="m649.38,256.163 2.037.494-1.213,3.359-1.766-.613z" fill="#fff"/>
 <path d="m648.036,260.354 2.336.769-1.751,4.629-2.547-.493z" fill="#fff"/>
 <path d="m651.03 261.32 2.644 0.796-1.852 4.58-2.544-1.003z" fill="#fff"/>
 <path d="m651.53,269.621 2.228.975-1.562,5.111-2.394-.803z" fill="#fff"/>
 <path d="m642.745,272.934 3.223.834-2.374,7.128-3.029-.738z" fill="#fff"/>
 <path d="m646.693,282.951 2.344.145-2.036,5.511-2.414-.435z" fill="#fff"/>
 <path d="m659.671,280.344 1.337.563-2.192,4.279-1.12-.322z" fill="#fff"/>
 <path d="m661.5 274.72 1.656 0.339-1.999 5.022-1.292-0.666z" fill="#fff"/>
 <path d="m679.355,304.97c2.613,1.17 5.142,2.283 7.818,3.499l-.931,2.628c-2.66-.849-5.161-1.593-7.75-2.395l.863-3.732z" fill="#95c048"/>
 <path d="m103.64 315.7s233.85-116.02 590-3.717" fill="#abcc6f"/>
 <path d="m103.64 310.7h583.81v46.063h-583.81z" fill="#abcc6f"/>
 <path d="m110.19,331.107-1.241-6.309 3.836,5.161 1.204-.521-4.018-6.478-1.303-3.001c.006-.01 4.273,1.127 4.294,1.199l-.507-1.206-4.363-1.319-.832.361-.426-.973-1.241.549 .432.97-.967.434-2.497,4.39 .582,1.172c-.059-.071 2.492-4.25 2.509-4.243l1.344,2.981 1.943,7.399 1.251-.566z" fill="#fbed65"/>
 <path d="m107.809,316.461c.345.806-.243,1.823-1.313,2.3-1.069.469-2.23.219-2.592-.577s.228-1.846 1.313-2.321 2.245-.203 2.592.598z" fill="#fbed65"/>
 <path d="m119.805,327.013-1-6.352 3.67,5.281 1.23-.484-3.816-6.603-1.205-3.041c.005-.005 4.232,1.267 4.25,1.331 .025.065-.472-1.22-.472-1.22l-4.312-1.456-.837.336-.394-.986-1.249.5 .397.985-.976.392-2.638,4.258 .507,1.206c-.039-.068 2.667-4.121 2.675-4.125l1.231,3.031 1.641,7.479 1.298-.532z" fill="#948e41"/>
 <path d="m117.934,312.29c.319.811-.295,1.818-1.373,2.252s-2.219.126-2.549-.681 .282-1.824 1.371-2.26 2.23-.128 2.551.689z" fill="#948e41"/>
 <path d="m129.624,323.183-.833-6.376 3.54,5.373 1.245-.46-3.653-6.689-1.129-3.069c.002-.01 4.196,1.363 4.216,1.435l-.443-1.23-4.272-1.562-.844.313-.369-.996-1.258.465 .371.995-.982.367-2.749,4.179 .472,1.22c-.034-.067 2.779-4.041 2.786-4.045l1.15,3.061 1.437,7.521 1.315-.502z" fill="#dd181a"/>
 <path d="m128.128,308.416c.3.822-.337,1.813-1.425,2.215s-2.216.069-2.525-.748 .327-1.819 1.422-2.221c1.096-.405 2.228-.066 2.528.754z" fill="#dd181a"/>
 <path d="m139.562,319.583-.69-6.396 3.421,5.445 1.258-.431-3.511-6.771-1.063-3.093c.002-.009 4.168,1.463 4.184,1.527l-.417-1.239-4.237-1.655-.85.296-.347-1.004-1.265.44 .349,1.003-.989.344-2.84,4.115 .443,1.23c-.03-.065 2.867-3.988 2.876-3.98l1.082,3.085 1.262,7.547 1.334-.463z" fill="#40a62b"/>
 <path d="m138.388,304.78c.282.825-.375,1.806-1.468,2.187s-2.215.021-2.506-.805c-.29-.824.367-1.805 1.468-2.188s2.223-.024 2.506.806z" fill="#40a62b"/>
 <path d="m149.59,316.186-.562-6.41 3.315,5.512 1.268-.407-3.381-6.837-1.002-3.113c.001-.011 4.14,1.544 4.155,1.608l-.393-1.248-4.205-1.736-.854.278-.327-1.011-1.273.416 .33,1.009-.995.325-2.922,4.055c0,0 .439,1.306.417,1.239-.029-.069 2.948-3.928 2.956-3.92l1.02,3.106 1.11,7.572 1.343-.438z" fill="#5bc3e5"/>
 <path d="m148.709,301.36c.266.831-.409,1.799-1.509,2.157s-2.213-.023-2.487-.854 .402-1.797 1.509-2.158 2.22.021 2.487.855z" fill="#5bc3e5"/>
 <path d="m159.693,312.975-.442-6.417 3.216,5.573 1.274-.388-3.254-6.894-.945-3.131c.002-.009 4.105,1.604 4.123,1.679l-.371-1.255-4.169-1.808-.86.262-.308-1.017-1.279.39 .311,1.016-1.001.305-2.995,4 .393,1.248c-.026-.064 3.019-3.876 3.027-3.866l.962,3.125 .968,7.592 1.35-.414z" fill="#6a130f"/>
 <path d="m159.085,298.142c.251.838-.441,1.789-1.547,2.126s-2.212-.067-2.471-.903c-.258-.835.435-1.788 1.548-2.127s2.219.067 2.47.904z" fill="#6a130f"/>
 <path d="m169.859,309.942-.33-6.426 3.12,5.632 1.284-.361-3.138-6.951-.891-3.146c.004-.001 4.078,1.677 4.091,1.743l-.35-1.26-4.136-1.875-.864.243-.291-1.021-1.288.363 .293,1.021-1.005.292-3.063,3.946 .371,1.255c-.024-.063 3.088-3.811 3.093-3.813l.907,3.142 .838,7.613 1.359-.397z" fill="#f2a7bd"/>
 <path d="m169.511,295.106c.237.843-.473,1.779-1.585,2.093s-2.208-.101-2.452-.943 .462-1.791 1.582-2.103c1.119-.315 2.218.113 2.455.953z" fill="#f2a7bd"/>
 <path d="m176.24 308.51c-23.696 6.641-47.677 14.531-69.368 24.536l-0.779-1.57c21.921-10.109 45.893-17.982 69.679-24.653l0.468 1.687z" fill="#95c048"/>
 <path d="m180.085,307.09-.223-6.432 3.024,5.674 1.29-.342-3.022-7-.84-3.162c.001-.011 4.052,1.758 4.064,1.822l-.329-1.266-4.106-1.954-.867.234-.274-1.026-1.291.35 .276,1.025-1.009.273-3.131,3.887 .35,1.26c-.026-.076 3.156-3.748 3.16-3.751l.855,3.157 .708,7.62 1.365-.369z" fill="#fbed65"/>
 <path d="m179.978,292.238c.223.843-.5,1.775-1.616,2.076s-2.206-.139-2.435-.982 .494-1.774 1.615-2.078 2.212.137 2.436.984z" fill="#fbed65"/>
 <path d="m190.356,304.39-.118-6.429 2.937,5.729 1.295-.32-2.912-7.047-.79-3.175c.004-.001 4.02,1.808 4.032,1.875l-.309-1.271-4.072-2.007-.871.216-.258-1.031-1.297.322 .26,1.029-1.014.254-3.19,3.85c0,0 .347,1.333.329,1.266-.021-.064 3.212-3.712 3.217-3.713l.804,3.171 .586,7.637 1.371-.356z" fill="#948e41"/>
 <path d="m190.49,289.556c.21.849-.528,1.762-1.65,2.04-1.123.273-2.204-.182-2.419-1.026-.217-.851.52-1.771 1.648-2.047s2.211.183 2.421,1.033z" fill="#948e41"/>
 <path d="m200.679,301.867-.021-6.434 2.848,5.768 1.299-.307-2.803-7.088-.741-3.185c.001-.01 3.992,1.864 4.005,1.94l-.29-1.275-4.042-2.073-.873.206-.242-1.035-1.301.307 .244,1.034-1.018.24-3.251,3.786 .309,1.271c-.023-.078 3.271-3.652 3.276-3.65l.755,3.182 .466,7.638 1.38-.325z" fill="#dd181a"/>
 <path d="m201.037,287.021c.197.854-.555,1.758-1.679,2.023s-2.2-.209-2.402-1.061 .549-1.757 1.679-2.023 2.205.21 2.402,1.061z" fill="#dd181a"/>
 <path d="m211.038,299.491 .076-6.439 2.761,5.813 1.307-.277-2.699-7.137-.693-3.195c.003-.001 3.966,1.938 3.976,2.007l-.271-1.28-4.012-2.14-.878.186-.227-1.037-1.303.291 .229,1.037-1.02.229-3.308,3.74c0,0 .306,1.344.29,1.275s3.326-3.603 3.331-3.604l.707,3.192 .351,7.65 1.383-.311z" fill="#40a62b"/>
 <path d="m211.619,284.656c.185.857-.583,1.736-1.71,1.988s-2.194-.234-2.385-1.09c-.189-.853.575-1.751 1.707-2.004s2.205.255 2.388,1.106z" fill="#40a62b"/>
 <path d="m221.433,297.264 .172-6.428 2.678,5.856 1.31-.262-2.596-7.173-.646-3.205c.003-.001 3.936,1.986 3.946,2.053l-.253-1.283-3.979-2.188-.878.176-.211-1.041-1.31.264 .213,1.039-1.024.206-3.359,3.703 .271,1.28c-.018-.066 3.376-3.568 3.38-3.567l.66,3.202 .24,7.659 1.386-.291z" fill="#5bc3e5"/>
 <path d="m222.234,282.449c.172.858-.607,1.737-1.739,1.964s-2.194-.284-2.371-1.138c-.178-.859.601-1.738 1.738-1.966s2.2.284 2.372,1.14z" fill="#5bc3e5"/>
 <path d="m231.866,295.201 .263-6.428 2.594,5.89 1.313-.247-2.492-7.206-.601-3.214c.003,0 3.905,2.032 3.914,2.101l-.234-1.286-3.945-2.236-.882.166-.196-1.043-1.312.246 .198,1.044-1.027.192-3.415,3.643 .253,1.283c-.02-.076 3.428-3.514 3.434-3.505l.614,3.212 .128,7.65 1.393-.262z" fill="#6a130f"/>
 <path d="m232.875,280.391c.16.86-.631,1.73-1.765,1.943s-2.188-.309-2.354-1.168 .625-1.729 1.766-1.943c1.14-.215 2.194.308 2.353,1.168z" fill="#6a130f"/>
 <path d="m242.327,293.28 .354-6.426 2.51,5.921 1.316-.231-2.391-7.236-.556-3.222c.002-.01 3.877,2.088 3.886,2.166l-.217-1.29-3.915-2.302-.883.155-.182-1.046-1.316.231 .183,1.046-1.029.182-3.465,3.582 .234,1.286c-.016-.065 3.479-3.443 3.483-3.444l.569,3.22 .022,7.653 1.397-.245z" fill="#f2a7bd"/>
 <path transform="matrix(.9849 -.1734 .1734 .9849 -44.69 46.093)" d="m243.58 278.84a2.095 1.584 0 1 0 -4.19 0 2.095 1.584 0 1 0 4.19 0" fill="#f2a7bd"/>
 <path d="m248.83 292.51c-24.471 4.096-48.731 9.395-72.596 15.994l-0.468-1.688c23.93-6.617 48.248-11.928 72.774-16.032l0.29 1.726z" fill="#95c048"/>
 <path d="m252.816,291.502 .442-6.423 2.427,5.952 1.32-.207-2.292-7.273-.512-3.231c.002-.011 3.85,2.165 3.857,2.23l-.199-1.293-3.884-2.366-.885.146-.167-1.049-1.318.216 .169,1.049-1.03.169-3.515,3.541 .217,1.29c-.015-.066 3.526-3.403 3.53-3.404l.525,3.229-.084,7.654 1.399-.23z" fill="#fbed65"/>
 <path d="m254.235,276.714c.135.86-.678,1.715-1.817,1.9-1.139.187-2.177-.362-2.318-1.225s.672-1.716 1.816-1.903c1.145-.187 2.183.36 2.319,1.228z" fill="#fbed65"/>
 <path d="m263.329,289.865 .529-6.418 2.348,5.988 1.323-.184-2.194-7.309-.468-3.236c.003-.001 3.82,2.215 3.826,2.282l-.182-1.296-3.852-2.418-.888.126-.153-1.051-1.32.2 .155,1.051-1.033.156-3.562,3.499 .199,1.293c-.014-.067 3.571-3.361 3.575-3.362l.481,3.236-.189,7.654 1.405-.211z" fill="#948e41"/>
 <path d="m264.95,275.106c.125.87-.703,1.687-1.844,1.865-1.142.174-2.171-.389-2.3-1.252-.129-.866.695-1.708 1.841-1.882 1.146-.18 2.179.407 2.303,1.269z" fill="#948e41"/>
 <path d="m273.866,288.37 .613-6.413 2.27,6.029 1.327-.168-2.098-7.337-.424-3.242c.003,0 3.791,2.263 3.796,2.33l-.165-1.298-3.819-2.466-.889.112-.139-1.053-1.324.176 .141,1.053-1.035.145-3.607,3.455c0,0 .191,1.365.182,1.296s3.616-3.317 3.619-3.318l.438,3.24-.291,7.655 1.405-.196z" fill="#dd181a"/>
 <path d="m275.684,273.639c.112.868-.725,1.688-1.87,1.833-1.143.158-2.165-.415-2.283-1.282s.718-1.699 1.866-1.857c1.15-.146 2.174.439 2.287,1.306z" fill="#dd181a"/>
 <path d="m284.422,287.015 .7-6.399 2.189,6.059 1.328-.151-2-7.362-.382-3.248c.003,0 3.76,2.31 3.764,2.377l-.147-1.3-3.786-2.514-.891.102-.125-1.055-1.325.152 .127,1.054-1.036.131-3.653,3.411c0,0 .173,1.367.165,1.298s3.659-3.272 3.663-3.273l.395,3.245-.393,7.652 1.407-.179z" fill="#40a62b"/>
 <path d="m286.435,272.313c.101.869-.747,1.679-1.893,1.81s-2.16-.446-2.267-1.318c-.105-.863.739-1.698 1.891-1.826s2.167.466 2.269,1.334z" fill="#40a62b"/>
 <path d="m294.997,285.8 .783-6.388 2.111,6.088 1.331-.135-1.906-7.389-.339-3.252c.003,0 3.73,2.357 3.734,2.425l-.13-1.302-3.754-2.562-.891.09-.111-1.056-1.328.134 .113,1.056-1.038.114-3.696,3.366 .147,1.3c-.012-.067 3.701-3.228 3.705-3.228l.353,3.25-.492,7.648 1.408-.159z" fill="#5bc3e5"/>
 <path d="m297.201,271.128c.09.871-.768,1.669-1.916,1.786-1.148.111-2.154-.48-2.25-1.352s.761-1.687 1.915-1.798c1.153-.117 2.161.495 2.251,1.364z" fill="#5bc3e5"/>
 <path d="m305.588,284.722 .866-6.375 2.033,6.113 1.332-.117-1.81-7.413-.298-3.256c.003,0 3.699,2.404 3.702,2.473l-.114-1.303-3.72-2.609-.894.079-.098-1.058-1.328.117 .099,1.057-1.04.099-3.739,3.319 .13,1.302c-.01-.067 3.742-3.181 3.746-3.181l.311,3.255-.59,7.641 1.412-.143z" fill="#6a130f"/>
 <path d="m307.98,270.081c.079.872-.789,1.66-1.938,1.761s-2.148-.511-2.231-1.382 .783-1.675 1.938-1.772 2.152.522 2.231,1.393z" fill="#6a130f"/>
 <path d="m316.193,283.779 .947-6.363 1.955,6.138 1.334-.101-1.716-7.434-.257-3.26c.003,0 3.669,2.452 3.67,2.52l-.097-1.305-3.687-2.657-.894.067-.084-1.059-1.332.1 .086,1.059-1.041.087-3.779,3.271 .114,1.303c-.01-.067 3.78-3.132 3.784-3.133l.269,3.259-.687,7.632 1.415-.124z" fill="#f2a7bd"/>
 <path d="m318.772,269.17c.067.873-.811,1.649-1.961,1.736-1.151.081-2.141-.536-2.213-1.409s.803-1.666 1.959-1.748c1.155-.087 2.147.55 2.215,1.421z" fill="#f2a7bd"/>
 <path d="m322.75,283.633c-24.768,1.83-49.447,4.771-73.917,8.881l-.29-1.728c24.526-4.119 49.258-7.065 74.077-8.899l.13,1.746z" fill="#95c048"/>
 <path d="m326.811,282.973 1.026-6.354 1.877,6.162 1.335-.083-1.622-7.454-.215-3.264c.003,0 3.637,2.5 3.638,2.567s-.081-1.306-.081-1.306l-3.652-2.705-.895.056-.071-1.06-1.333.083 .073,1.06-1.041.078-3.821,3.222c0,0 .103,1.374.097,1.305s3.821-3.083 3.825-3.083l.228,3.263-.783,7.621 1.415-.108z" fill="#fbed65"/>
 <path d="m329.572,268.396c.057.872-.831,1.638-1.982,1.71s-2.133-.557-2.195-1.433c-.061-.869.825-1.661 1.981-1.728s2.14.578 2.196,1.451z" fill="#fbed65"/>
 <path d="m337.438,282.302 1.105-6.348 1.801,6.187 1.335-.065-1.529-7.475-.175-3.267c.003,0 3.605,2.547 3.606,2.615s-.065-1.306-.065-1.306l-3.618-2.753-.896.044-.058-1.061-1.333.072 .06,1.06-1.042.065-3.861,3.171c0,0 .085,1.375.081,1.306-.008-.067 3.86-3.033 3.863-3.033l.188,3.266-.879,7.609 1.417-.087z" fill="#948e41"/>
 <path d="m340.381,267.756c.046.873-.851,1.627-2.003,1.683-1.152.066-2.126-.581-2.177-1.454s.845-1.643 2.001-1.709c1.158-.057 2.133.606 2.179,1.48z" fill="#948e41"/>
 <path d="m348.075,281.762 1.183-6.332 1.725,6.199 1.337-.047-1.438-7.496-.135-3.267c.003,0 3.575,2.595 3.574,2.663s-.049-1.308-.049-1.308l-3.585-2.8-.896.032-.045-1.061-1.333.065 .046,1.061-1.043.051-3.9,3.121c0,0 .068,1.376.065,1.306-.007-.067 3.897-2.982 3.9-2.982l.147,3.266-.973,7.599 1.42-.07z" fill="#dd181a"/>
 <path d="m351.196,267.246c.035.878-.871,1.608-2.023,1.665s-2.119-.606-2.159-1.48 .866-1.628 2.022-1.684 2.126.629 2.16,1.499z" fill="#dd181a"/>
 <path d="m358.718,281.354 1.261-6.315 1.648,6.212 1.337-.033-1.346-7.512-.095-3.269c.003-.004 3.542,2.642 3.541,2.708s-.033-1.308-.033-1.308l-3.55-2.846-.896.032-.032-1.062-1.333.047 .034,1.062-1.043.037-3.938,3.068c0,0 .051,1.377.049,1.308-.006-.068 3.934-2.93 3.937-2.93l.107,3.268-1.067,7.584 1.419-.051z" fill="#40a62b"/>
 <path d="m362.016,266.867c.024.871-.891,1.608-2.043,1.651s-2.111-.634-2.14-1.509 .885-1.616 2.043-1.657 2.116.638 2.14,1.515z" fill="#40a62b"/>
 <path d="m369.366,281.076 1.337-6.3 1.573,6.235 1.338-.029-1.256-7.518-.056-3.269c.003-.012 3.511,2.664 3.509,2.739s-.018-1.308-.018-1.308l-3.516-2.876-.895.02-.019-1.062-1.334.029 .021,1.062-1.043.023-3.976,3.015c0,0 .035,1.377.033,1.308-.005-.068 3.969-2.876 3.973-2.876l.067,3.269-1.158,7.57 1.42-.032z" fill="#5bc3e5"/>
 <path d="m372.839,266.627c.014.875-.91,1.604-2.063,1.629-1.153.026-2.103-.662-2.122-1.537s.905-1.604 2.063-1.629c1.158-.026 2.109.663 2.122,1.537z" fill="#5bc3e5"/>
 <path d="m380.018,280.924 1.413-6.281 1.499,6.256 1.338-.012-1.166-7.533-.016-3.27c.003.003 3.478,2.684 3.475,2.766 0,.07-.001-1.308-.001-1.308l-3.481-2.904-.897.008-.006-1.062-1.333.011 .008,1.062-1.044.009-4.012,2.96c0,0 .018,1.378.018,1.308-.005-.068 4.003-2.822 4.006-2.822l.028,3.27-1.249,7.554 1.42-.012z" fill="#6a130f"/>
 <path d="m383.664,266.523c.003.875-.929,1.592-2.082,1.602s-2.095-.691-2.104-1.566c-.008-.874.924-1.591 2.083-1.601s2.099.691 2.103,1.565z" fill="#6a130f"/>
 <path d="m390.671,280.895 1.488-6.259 1.424,6.275 1.338.006-1.077-7.547 .022-3.27c.003,0 3.446,2.738 3.442,2.806s.014-1.308.014-1.308l-3.446-2.944-.896-.004 .006-1.062-1.334-.007-.005,1.062-1.044-.005-4.044,2.905c0,0 .001,1.378.001,1.308s4.035-2.768 4.038-2.768l-.011,3.27-1.337,7.534 1.421.008z" fill="#f2a7bd"/>
 <path d="m394.488,266.547c-.007.875-.948,1.579-2.101,1.573s-2.086-.72-2.084-1.595c.002-.874.942-1.579 2.101-1.573s2.091.721 2.084,1.595z" fill="#f2a7bd"/>
 <path d="m397.22,281.281c-24.849-.237-49.705.482-74.471,2.354l-.13-1.748c24.817-1.873 49.723-2.595 74.62-2.355l-.019,1.749z" fill="#95c048"/>
 <path d="m401.325,280.99 1.562-6.239 1.351,6.294 1.338.025-.987-7.56 .062-3.271c.003,0 3.412,2.786 3.408,2.854s.029-1.308.029-1.308l-3.411-2.991-.896-.017 .019-1.062-1.335-.025-.017,1.062-1.043-.02-4.08,2.866c0,0-.015,1.377-.014,1.308-.002-.083 4.069-2.731 4.072-2.728l-.049,3.271-1.428,7.515 1.419.026z" fill="#fbed65"/>
 <path d="m405.31,266.697c-.017.874-.966,1.565-2.119,1.543s-2.077-.749-2.064-1.623c.012-.875.961-1.566 2.119-1.544s2.082.749 2.064,1.624z" fill="#fbed65"/>
 <path d="m411.978,281.205 1.634-6.217 1.277,6.313 1.337.044-.898-7.574 .1-3.27c.003,0 3.379,2.833 3.374,2.9s.044-1.307.044-1.307l-3.375-3.039-.896-.029 .031-1.062-1.333-.044-.029,1.062-1.043-.034-4.114,2.836c0,0-.031,1.377-.029,1.308s4.102-2.716 4.104-2.699l-.088,3.27-1.516,7.5 1.42.042z" fill="#948e41"/>
 <path d="m416.129,266.968c-.027.874-.983,1.552-2.137,1.514s-2.067-.778-2.045-1.651c.022-.875.979-1.553 2.137-1.516s2.073.778 2.045,1.653z" fill="#948e41"/>
 <path d="m422.628,281.555 1.706-6.21 1.204,6.331 1.337.063-.812-7.588 .137-3.267c.003,0 3.347,2.88 3.341,2.948l.06-1.307-3.34-3.086-.895-.042 .044-1.061-1.333-.059-.042,1.062-1.043-.035-4.147,2.792c0,0-.047,1.377-.044,1.307s4.132-2.654 4.136-2.653l-.126,3.267-1.604,7.493 1.421.045z" fill="#dd181a"/>
 <path d="m426.946,267.358c-.038.875-1.002,1.539-2.154,1.484s-2.06-.78-2.026-1.657c.032-.871.998-1.558 2.154-1.507s2.063.807 2.026,1.68z" fill="#dd181a"/>
 <path d="m433.274,282.038 1.778-6.19 1.131,6.327 1.337.071-.724-7.592 .175-3.265c.003-.015 3.312,2.923 3.306,2.988l.074-1.306-3.303-3.126-.896-.042 .057-1.061-1.332-.063-.055,1.061-1.042-.049-4.179,2.733c0,0-.063,1.376-.06,1.307s4.163-2.596 4.166-2.596l-.163,3.266-1.69,7.471 1.42.066z" fill="#40a62b"/>
 <path d="m437.755,267.867c-.048.872-1.021,1.537-2.172,1.482s-2.051-.806-2.008-1.68 1.016-1.538 2.172-1.483c1.157.055 2.056.806 2.008,1.681z" fill="#40a62b"/>
 <path d="m443.914,282.639 1.849-6.167 1.06,6.345 1.336.082-.639-7.596 .212-3.263c.003.002 3.282,2.922 3.274,2.998l.09-1.305-3.271-3.135-.894-.055 .067-1.06-1.331-.081-.066,1.06-1.042-.063-4.208,2.674-.074,1.306c0-.068 4.19-2.537 4.194-2.537l-.201,3.264-1.774,7.448 1.418.085z" fill="#5bc3e5"/>
 <path d="m448.557,268.527c-.058.873-1.038,1.523-2.188,1.453s-2.041-.834-1.988-1.708 1.033-1.523 2.188-1.453 2.045.836 1.988,1.708z" fill="#5bc3e5"/>
 <path d="m454.548,283.352 1.918-6.142 .987,6.36 1.335.102-.552-7.606 .248-3.26c.003,0 3.248,2.973 3.239,3.041s.104-1.304.104-1.304l-3.233-3.179-.895-.067 .08-1.059-1.329-.101-.078,1.059-1.041-.078-4.237,2.614-.09,1.305c.002-.068 4.219-2.478 4.223-2.478l-.238,3.261-1.858,7.424 1.417.108z" fill="#6a130f"/>
 <path transform="matrix(.9972 .0752 -.0752 .9972 21.523 -33.607)" d="m459.36 269.15a2.092 1.584 0 1 0 -4.184 0 2.092 1.584 0 1 0 4.184 0" fill="#6a130f"/>
 <path d="m465.175,284.174 1.986-6.113 .915,6.374 1.334.12-.467-7.614 .285-3.257c.003,0 3.213,3.02 3.204,3.088l.119-1.303-3.197-3.226-.892-.08 .092-1.058-1.329-.12-.091,1.058-1.04-.093-4.267,2.592-.104,1.304c.003-.074 4.248-2.471 4.25-2.455l-.273,3.258-1.94,7.398 1.415.127z" fill="#f2a7bd"/>
 <path d="m470.133,270.194c-.077.872-1.071,1.494-2.22,1.391s-2.021-.893-1.947-1.765 1.065-1.494 2.219-1.39 2.024.894 1.948,1.764z" fill="#f2a7bd"/>
 <path d="m471.673,285.113c-24.76-2.285-49.604-3.535-74.453-3.83l.019-1.752c24.897.297 49.789,1.549 74.593,3.838l-.159,1.744z" fill="#95c048"/>
 <path d="m475.792,285.129 2.056-6.107 .844,6.387 1.332.139-.381-7.621 .321-3.255c.003,0 3.178,3.067 3.168,3.134s.133-1.301.133-1.301l-3.159-3.272-.891-.093 .103-1.057-1.327-.128-.103,1.057-1.039-.094-4.297,2.552-.119,1.303c.003-.068 4.275-2.416 4.279-2.415l-.311,3.257-2.025,7.388 1.416.126z" fill="#fbed65"/>
 <path d="m480.906,271.195c-.087.87-1.087,1.479-2.233,1.359-1.148-.104-2.013-.894-1.931-1.764s1.084-1.494 2.236-1.389c1.151.12 2.015.924 1.928,1.794z" fill="#fbed65"/>
 <path d="m486.397,286.213 2.123-6.079 .775,6.382 1.331.14-.299-7.612 .357-3.251c.004-.01 3.146,3.075 3.135,3.154l.147-1.299-3.124-3.292-.891-.093 .115-1.056-1.326-.139-.114,1.056-1.038-.108-4.324,2.49c0,0-.141,1.371-.133,1.301 .004-.067 4.301-2.354 4.304-2.353l-.346,3.253-2.106,7.36 1.414.146z" fill="#948e41"/>
 <path d="m491.666,272.32c-.096.869-1.104,1.477-2.251,1.357s-2.001-.923-1.909-1.792 1.1-1.479 2.251-1.358 2.005.923 1.909,1.793z" fill="#948e41"/>
 <path d="m496.992,287.404 2.188-6.051 .704,6.396 1.33.158-.215-7.62 .393-3.246c.002,0 3.113,3.11 3.102,3.178l.162-1.299-3.09-3.315-.89-.106 .127-1.055-1.324-.158-.126,1.055-1.036-.124-4.35,2.429-.147,1.299c.005-.067 4.325-2.292 4.328-2.291l-.382,3.247-2.187,7.335 1.413.168z" fill="#dd181a"/>
 <path transform="matrix(.993 .1184 -.1184 .993 35.873 -57.304)" d="m502.42 273.33a2.091 1.584 0 1 0 -4.182 0 2.091 1.584 0 1 0 4.182 0" fill="#dd181a"/>
 <path d="m507.574,288.697 2.254-6.021 .635,6.408 1.327.178-.132-7.626 .429-3.241c.002,0 3.076,3.156 3.064,3.224l.176-1.296-3.052-3.361-.888-.119 .138-1.054-1.32-.177-.137,1.053-1.034-.139-4.378,2.395-.162,1.299c.007-.082 4.354-2.273 4.355-2.259l-.418,3.243-2.267,7.305 1.41.188z" fill="#40a62b"/>
 <path d="m513.141,274.948c-.115.868-1.135,1.446-2.277,1.292s-1.979-.98-1.868-1.848 1.131-1.446 2.277-1.292 1.983.982 1.868,1.848z" fill="#40a62b"/>
 <path d="m518.141,290.115 2.321-6.014 .565,6.418 1.325.198-.051-7.634 .463-3.236c.003,0 3.043,3.203 3.03,3.271s.189-1.294.189-1.294l-3.015-3.408-.885-.132 .149-1.052-1.32-.186-.148,1.052-1.034-.139-4.405,2.362c0,0-.185,1.365-.176,1.296s4.378-2.227 4.381-2.226l-.452,3.238-2.347,7.295 1.41.191z" fill="#5bc3e5"/>
 <path d="m523.859,276.416c-.125.865-1.15,1.429-2.29,1.26-1.143-.153-1.972-.979-1.851-1.846s1.147-1.444 2.294-1.29c1.145.169 1.972,1.011 1.847,1.876z" fill="#5bc3e5"/>
 <path d="m528.692,291.663 2.385-5.982 .498,6.412 1.324.197 .031-7.622 .497-3.231c.003.001 3.014,3.196 2.998,3.278l.203-1.292-2.98-3.415-.887-.133 .16-1.049-1.317-.197-.159,1.051-1.032-.154-4.428,2.299c0,0-.2,1.363-.189,1.294s4.398-2.163 4.401-2.163l-.486,3.233-2.425,7.265 1.406.209z" fill="#6a130f"/>
 <path d="m534.557,278.01c-.134.865-1.167,1.428-2.307,1.258s-1.96-1.009-1.83-1.874c.13-.864 1.163-1.428 2.308-1.257s1.963,1.009 1.829,1.873z" fill="#6a130f"/>
 <path d="m539.228,293.306 2.447-5.949 .43,6.422 1.321.217 .111-7.624 .532-3.227c.002,0 2.976,3.246 2.962,3.313l.217-1.291-2.944-3.448-.883-.146 .172-1.047-1.316-.217-.171,1.049-1.03-.17-4.447,2.235-.203,1.292c.008-.067 4.417-2.1 4.42-2.1l-.521,3.229-2.498,7.231 1.401.231z" fill="#f2a7bd"/>
 <path d="m545.236,279.732c-.144.863-1.182,1.411-2.318,1.225s-1.947-1.038-1.809-1.902 1.177-1.411 2.318-1.224 1.951,1.04 1.809,1.901z" fill="#f2a7bd"/>
 <path d="m545.64 294.72c-24.535-4.093-49.203-7.393-73.969-9.603l0.158-1.745c24.812 2.215 49.524 5.521 74.101 9.621l-0.29 1.727z" fill="#95c048"/>
 <path d="m549.75,295.043 2.509-5.917 .359,6.433 1.319.236 .192-7.626 .566-3.222c.002,0 2.938,3.291 2.924,3.357l.23-1.288-2.904-3.494-.882-.158 .183-1.046-1.313-.236-.182,1.047-1.026-.185-4.479,2.222-.217,1.291c.008-.064 4.449-2.104 4.449-2.088l-.556,3.225-2.576,7.209 1.404.24z" fill="#fbed65"/>
 <path d="m555.897,281.551c-.152.86-1.195,1.395-2.33,1.191-1.134-.204-1.934-1.068-1.786-1.93s1.191-1.396 2.33-1.192 1.938,1.069 1.786,1.931z" fill="#fbed65"/>
 <path d="m560.248,296.927 2.573-5.905 .297,6.421 1.316.241 .271-7.617 .6-3.216c.005-.015 2.903,3.325 2.888,3.392l.244-1.285-2.867-3.527-.882-.158 .194-1.045-1.313-.235-.192,1.044-1.027-.184-4.499,2.165-.23,1.288c.009-.068 4.467-2.031 4.47-2.031l-.589,3.219-2.653,7.184 1.399.249z" fill="#948e41"/>
 <path d="m566.542,283.461c-.161.859-1.21,1.393-2.346,1.188-1.135-.203-1.927-1.066-1.77-1.926s1.207-1.394 2.346-1.189 1.931,1.068 1.77,1.927z" fill="#948e41"/>
 <path d="m570.728,298.91 2.632-5.871 .229,6.429 1.314.257 .35-7.615 .632-3.209c.003.001 2.874,3.332 2.858,3.398l.258-1.283-2.836-3.533-.879-.172 .204-1.042-1.309-.255-.203,1.043-1.024-.2-4.518,2.101-.244,1.285c.01-.067 4.484-1.967 4.486-1.967l-.622,3.211-2.726,7.152 1.398.271z" fill="#dd181a"/>
 <path transform="matrix(.9815 .1913 -.1913 .9815 65.152 -104.73)" d="m577.2 285.13a2.091 1.584 0 1 0 -4.182 0 2.091 1.584 0 1 0 4.182 0" fill="#dd181a"/>
 <path d="m581.191,300.979 2.691-5.837 .162,6.438 1.311.276 .43-7.616 .664-3.202c.003.001 2.836,3.377 2.82,3.442l.27-1.279-2.795-3.578-.877-.186 .215-1.039-1.304-.275-.214,1.041-1.021-.215-4.542,2.066-.258,1.283c.013-.08 4.51-1.948 4.51-1.934l-.655,3.204-2.799,7.117 1.392.294z" fill="#40a62b"/>
 <path d="m587.754,287.68c-.179.856-1.238,1.357-2.365,1.12s-1.901-1.124-1.727-1.981 1.234-1.358 2.366-1.121 1.905,1.126 1.726,1.982z" fill="#40a62b"/>
 <path d="m591.629,303.178 2.754-5.826 .1,6.427 1.308.294 .506-7.619 .698-3.194c.002.001 2.799,3.422 2.781,3.488l.283-1.277-2.757-3.624-.875-.186 .226-1.037-1.304-.275-.225,1.039-1.021-.215-4.565,2.029-.27,1.279c.011-.066 4.527-1.896 4.53-1.895l-.688,3.196-2.874,7.103 1.393.293z" fill="#5bc3e5"/>
 <path d="m598.334,289.916c-.187.853-1.25,1.34-2.379,1.107-1.128-.236-1.894-1.122-1.71-1.979 .183-.854 1.249-1.354 2.381-1.116 1.133.234 1.896,1.133 1.708,1.988z" fill="#5bc3e5"/>
 <path d="m602.044,305.487 2.812-5.791 .033,6.434 1.307.296 .581-7.602 .73-3.188c.002,0 2.771,3.416 2.754,3.481l.296-1.274-2.728-3.617-.874-.197 .236-1.035-1.3-.295-.234,1.037-1.018-.23-4.581,1.964c0,0-.298,1.345-.283,1.277 .012-.067 4.543-1.831 4.546-1.831l-.72,3.189-2.944,7.067 1.387.315z" fill="#6a130f"/>
 <path transform="matrix(.9753 .2208 -.2208 .9753 79.4 -126.77)" d="m608.93 291.84a2.09 1.584 0 1 0 -4.18 0 2.09 1.584 0 1 0 4.18 0" fill="#6a130f"/>
 <path d="m612.443,307.873 2.867-5.754-.033,6.44 1.303.315 .658-7.601 .761-3.18c.003.001 2.734,3.46 2.716,3.526l.309-1.271-2.688-3.661-.87-.211 .247-1.032-1.296-.314-.245,1.033-1.015-.245-4.6,1.925c0,0-.313,1.342-.296,1.274 .016-.082 4.563-1.804 4.563-1.792l-.752,3.183-3.012,7.03 1.383.335z" fill="#f2a7bd"/>
 <path d="m619.406,294.777c-.204.851-1.278,1.319-2.398,1.049s-1.865-1.181-1.664-2.033 1.273-1.32 2.397-1.049 1.869,1.184 1.665,2.033z" fill="#f2a7bd"/>
 <path d="m618.74 309.76c-24.188-5.849-48.557-10.966-73.096-15.042l0.29-1.729c24.583 4.085 48.991 9.211 73.219 15.069l-0.413 1.702z" fill="#95c048"/>
 <path d="m622.813,310.384 2.928-5.739-.094,6.425 1.299.331 .734-7.597 .794-3.174c.003-.001 2.693,3.504 2.675,3.569l.321-1.269-2.646-3.703-.871-.211 .257-1.03-1.296-.314-.256,1.031-1.013-.245-4.623,1.892-.309,1.271c.013-.067 4.582-1.76 4.585-1.76l-.784,3.177-3.085,7.011 1.384.335z" fill="#fbed65"/>
 <path d="m629.912,297.329c-.212.845-1.29,1.305-2.411,1.037s-1.858-1.18-1.649-2.028 1.289-1.318 2.413-1.046 1.86,1.185 1.647,2.037z" fill="#fbed65"/>
 <path d="m633.156,313.003 2.982-5.703-.157,6.433 1.297.334 .807-7.579 .824-3.165c.002,0 2.668,3.497 2.647,3.563l.334-1.265-2.617-3.697-.867-.224 .267-1.028-1.29-.333-.266,1.028-1.01-.261-4.637,1.825-.321,1.269c.014-.066 4.595-1.694 4.598-1.693l-.815,3.168-3.152,6.974 1.376.354z" fill="#948e41"/>
 <path transform="matrix(.9683 .2498 -.2498 .9683 95.048 -149.96)" d="m640.45 299.51a2.09 1.583 0 1 0 -4.18 0 2.09 1.583 0 1 0 4.18 0" fill="#948e41"/>
 <path d="m643.482,315.694 3.035-5.666-.223,6.438 1.293.354 .881-7.578 .855-3.156c.002,0 2.629,3.541 2.609,3.606l.346-1.262-2.577-3.741-.863-.236 .276-1.025-1.285-.353-.275,1.025-1.006-.275-4.658,1.795-.334,1.265c.018-.075 4.619-1.679 4.618-1.663l-.846,3.159-3.219,6.937 1.373.376z" fill="#dd181a"/>
 <path d="m650.827,302.811c-.229.845-1.315,1.281-2.428.977s-1.829-1.236-1.603-2.082c.225-.844 1.313-1.281 2.427-.976 1.115.305 1.833,1.238 1.604,2.081z" fill="#dd181a"/>
 <path d="m653.774,318.517 3.094-5.65-.281,6.422 1.293.354 .951-7.56 .886-3.147c.006-.013 2.596,3.562 2.573,3.632l.358-1.258-2.541-3.766-.863-.237 .286-1.022-1.284-.353-.285,1.022-1.006-.275-4.676,1.752-.346,1.262c.015-.066 4.631-1.621 4.634-1.62l-.876,3.15-3.29,6.917 1.373.377z" fill="#40a62b"/>
 <path d="m661.252,305.67c-.238.842-1.331,1.277-2.442.973s-1.823-1.235-1.589-2.078 1.327-1.278 2.441-.973c1.116.305 1.828,1.237 1.59,2.078z" fill="#40a62b"/>
 <path d="m664.04,321.432 3.146-5.613-.345,6.428 1.288.374 1.024-7.557 .915-3.14c.002.001 2.565,3.578 2.544,3.643l.37-1.255-2.51-3.776-.858-.249 .296-1.02-1.279-.372-.296,1.02-1.001-.291-4.686,1.687-.358,1.258c.016-.066 4.641-1.556 4.644-1.555l-.906,3.143-3.354,6.88 1.366.395z" fill="#5bc3e5"/>
 <path transform="matrix(.9603 .279 -.279 .9603 112.54 -174.58)" d="m671.72 308.09a2.09 1.583 0 1 0 -4.18 0 2.09 1.583 0 1 0 4.18 0" fill="#5bc3e5"/>
 <path d="m674.289,324.41 3.196-5.575-.407,6.432 1.281.394 1.099-7.553 .945-3.131c.002.001 2.525,3.621 2.503,3.686l.382-1.251-2.468-3.819-.856-.263 .307-1.017-1.273-.391-.305,1.017-.997-.305-4.713,1.678-.37,1.255c.017-.065 4.666-1.548 4.669-1.547l-.936,3.133-3.423,6.86 1.366.397z" fill="#6a130f"/>
 <path d="m681.999,311.747c-.254.838-1.353,1.242-2.453.903s-1.793-1.289-1.544-2.124 1.351-1.25 2.455-.909 1.794,1.294 1.542,2.13z" fill="#6a130f"/>
 <path d="m684.493,327.542 3.252-5.558-.463,6.414 1.281.394 1.166-7.531 .974-3.121c.002,0 2.501,3.613 2.479,3.678l.394-1.248-2.441-3.811-.855-.263 .315-1.014-1.274-.392-.314,1.015-.997-.307-4.72,1.612-.382,1.251c.018-.066 4.672-1.482 4.675-1.481l-.966,3.124-3.482,6.819 1.358.419z" fill="#f2a7bd"/>
 <path d="m692.332,314.92c-.262.835-1.366,1.237-2.468.899s-1.785-1.29-1.527-2.126c.257-.835 1.361-1.238 2.467-.899 1.104.34 1.788,1.292 1.528,2.126z" fill="#f2a7bd"/>
 <path d="m690.66 329.81c-23.75-7.476-47.739-14.173-71.925-20.044l0.414-1.702c24.224 5.88 48.251 12.589 72.038 20.076l-0.527 1.67z" fill="#95c048"/>
 <path d="m221.16 72.249c-54.911 25.175-104.88 63.411-141.22 113.57-36.523 49.723-58.148 112.06-57.589 174.9l-17.706 0.101c-0.619-66.734 22.431-132.99 60.973-185.41 38.356-52.92 90.781-92.943 148.16-119.26l7.378 16.095z" fill="#e22723"/>
 <path d="m256.41 149.14c-43.117 19.736-81.357 49.437-108.04 86.411-26.885 36.808-41.704 80.422-41.427 124.69l-17.706 0.101c-0.336-48.152 15.907-95.685 44.81-135.2 28.707-39.734 69.401-71.222 114.99-92.096l7.379 16.094z" fill="#4c2774"/>
 <path d="m249.29 133.62c-45.499 20.834-86.107 52.259-114.74 91.896-28.832 39.416-45.025 86.81-44.69 134.83l-17.706 0.101c-0.393-51.904 17.225-103.22 48.074-145.34 30.655-42.396 73.719-75.608 121.69-97.581l7.378 16.094z" fill="#324a96"/>
 <path d="m242.32 118.4c-47.832 21.91-90.76 55.023-121.3 97.268-30.738 41.971-48.277 93.068-47.888 144.76l-17.706 0.101c-0.449-55.58 18.515-110.6 51.271-155.27 32.563-45.005 77.947-79.904 128.25-102.95l7.379 16.095z" fill="#0f802e"/>
 <path d="m235.26 103.02c-50.191 22.999-95.467 57.819-127.94 102.7-32.667 44.555-51.568 99.397-51.122 154.81l-17.705 0.101c-0.506-59.298 19.82-118.06 54.504-165.32 34.495-47.643 82.225-84.25 134.88-108.39l7.379 16.094z" fill="#f2e413"/>
 <path d="m228.21 87.634c-52.551 24.087-100.17 60.616-134.58 108.14-34.595 47.139-54.859 105.73-54.356 164.85l-17.706 0.101c-0.562-63.016 21.126-125.52 57.739-175.36 36.425-50.282 86.503-88.597 141.52-113.82l7.379 16.095z" fill="#f4a31c"/>
 <path d="m570.541,71.164c-56.046-21.838-113.33-33.123-173.103-36.004-61.871-.408-120.82,11.852-176.282,37.09l-7.378-16.095c28.767-13.11 58.834-23.081 89.573-29.375 15.33-3.388 30.868-5.49 46.413-7.182 7.777-.804 15.581-1.233 23.373-1.751l11.7-.33 5.851-.152c3.485-.074 5.165.051 7.352.098 62.165,3.022 120.619,14.541 179.038,37.245l-6.537,16.456z" fill="#e22723"/>
 <path d="m539.323,149.78c-44.717-17.701-96.406-27.87-144.752-30.082-1.272-.031-3.052-.112-3.026-.043l-4.527.132-9.055.239c-6.011.434-12.042.733-18.029,1.358-11.958,1.333-23.91,2.887-35.612,5.516-23.519,4.781-46.308,12.413-67.916,22.242l-7.378-16.095c45.219-20.967 97.367-31.338 146.143-31.044 50.738,2.352 103.599,12.754 150.687,31.321l-6.535,16.456z" fill="#4c2774"/>
 <path d="m545.63 133.9c-47.004-18.537-99.823-28.931-150.48-31.278-48.654-0.292-100.74 10.061-145.86 30.988l-7.378-16.095c47.835-22.058 101.72-32.911 153.84-32.588 53.046 2.487 107.04 13.115 156.41 32.518l-6.534 16.455z" fill="#324a96"/>
 <path d="m551.8 118.35c-49.246-19.354-103.17-29.97-156.09-32.449-51.93-0.321-105.72 10.504-153.4 32.5l-7.379-16.096c50.397-23.126 105.98-34.452 161.38-34.101 55.306 2.62 110.4 13.468 162.02 33.689l-6.534 16.457z" fill="#0f802e"/>
 <path d="m558.05 102.62c-51.512-20.183-106.56-31.021-161.76-33.635-55.244-0.35-110.75 10.954-161.03 34.03l-7.378-16.095c52.989-24.206 110.3-36.01 169.01-35.63 57.593 2.754 113.81 13.826 167.69 34.875l-6.534 16.455z" fill="#f2e413"/>
 <path d="m564.29 86.894c-53.779-21.01-109.94-32.072-167.43-34.819-58.557-0.379-115.78 11.402-168.66 35.56l-7.379-16.095c55.582-25.288 114.61-37.57 176.63-37.161 59.878 2.888 117.21 14.184 173.36 36.06l-6.534 16.455z" fill="#f4a31c"/>
 <path d="m767.64 357.4c1.776-60.161-12.872-125.31-50.46-177.22-37.086-52.185-91.332-87.169-146.64-109.02l6.535-16.456c57.45 22.699 114.87 59.441 154.52 115.2 40.199 55.472 55.649 125.06 53.74 187.88l-17.7-0.396z" fill="#e22723"/>
 <path d="m683.07 355.5c1.144-47.435-9.677-91.367-34.787-126.24-24.824-35.099-63.916-61.687-108.96-79.483l6.534-16.456c47.192 18.645 89.456 46.991 116.85 85.666 27.723 38.439 39.344 86.813 38.067 136.91l-17.701-0.397z" fill="#4c2774"/>
 <path d="m700.15 355.89c1.272-50.005-10.321-98.221-37.951-136.54-27.301-38.548-69.452-66.833-116.57-85.447l6.534-16.456c49.264 19.463 94.588 49.504 124.46 91.63 30.241 41.878 42.637 94.536 41.232 147.2l-17.702-0.397z" fill="#324a96"/>
 <path d="m716.88 356.26c1.396-52.521-10.954-104.94-41.052-146.62-29.726-41.929-74.876-71.874-124.02-91.29l6.534-16.456c51.293 20.265 99.614 51.968 131.91 97.473 32.71 45.248 45.861 102.1 44.332 157.29l-17.7-0.398z" fill="#0f802e"/>
 <path d="m733.8 356.64c1.523-55.069-11.594-111.73-44.188-156.82-32.179-45.347-80.361-76.972-131.56-97.2l6.534-16.455c53.345 21.077 104.7 54.458 139.44 103.38 35.207 48.655 49.124 109.75 47.469 167.49l-17.7-0.396z" fill="#f2e413"/>
 <path d="m750.72 357.02c1.65-57.615-12.232-118.52-47.323-167.02-34.633-48.766-85.847-82.071-139.1-103.11l6.534-16.456c55.398 21.888 109.78 56.95 146.98 109.29 37.703 52.063 52.387 117.41 50.604 177.69l-17.701-0.396z" fill="#f4a31c"/>
</svg>
